# xmcd
#
# Track frame offsets:
#	150
#	19195
#	45128
#	67515
#	98245
#	116353
#	129870
#	144645
#	158381
#	182689
#	198183
#	221256
#	241056
#	266669
#	280564
#
# Disc length: 3909 seconds
#
# Revision: 2
# Processed by: cddbd v1.5.2PL0 Copyright (c) Steve Scherf et al.
# Submitted via: audiograbber 1.83.01
#
DISCID=b20f430f
DTITLE=Various Artist - 20 Years Of Being Skint [CD2]
DYEAR=2015
DGENRE=Electronic
TTITLE0=Mirrors - Fear Of Drowning (Lapalux Remix)
TTITLE1=Goose - Bring It On (Maya Jane Coles Remix)
TTITLE2=Vicarious Bliss - Theme From Vicarious Bliss (Justice Mix)
TTITLE3=Romen Flügel - Geht's Noch?
TTITLE4=X-Press 2 - Smoke Machine (Dense and Pika Remix)
TTITLE5=Tim Deluxe feat. Audio Bullies - Let The Beats Roll
TTITLE6=Sonny Wharton - Raindance
TTITLE7=Mogwai and Westbam - Original Hardcore
TTITLE8=Kidda - Under The Sun (Hervé's Ain't No Sunshine Mix)
TTITLE9=Sonny Wharton feat. Roland Clark - I See U (VIP Mix)
TTITLE10=Run Riot - Survive The Drop
TTITLE11=Foamo - Wardance
TTITLE12=Fatboy Slim - Weapon Of Choice (Zedd Remix)
TTITLE13=Noisia feat. Bex Riley - Gutterpunk
TTITLE14=Fatboy Slim feat. Beardyman - Eat Sleep Rave Repeat (Calvin Harris Rem
TTITLE14=ix)
EXTD=CD2/3
EXTT0=
EXTT1=
EXTT2=
EXTT3=
EXTT4=
EXTT5=
EXTT6=
EXTT7=
EXTT8=
EXTT9=
EXTT10=
EXTT11=
EXTT12=
EXTT13=
EXTT14=
PLAYORDER=
